<svg width="147" height="44" viewBox="0 0 147 44" fill="none" xmlns="http://www.w3.org/2000/svg">
<g clip-path="url(#clip0)">
<path d="M48 13.0927C49.0123 13.0927 49.9726 13.0851 50.9316 13.1054C51.0179 13.1067 51.146 13.2805 51.1777 13.3947C51.5215 14.6353 51.85 15.881 52.1836 17.1254C53.0348 20.2968 53.8873 23.4681 54.741 26.6395C54.7765 26.7701 54.8171 26.8995 54.8831 27.124C54.949 26.9464 54.9884 26.8589 55.015 26.7676C56.2912 22.3784 57.5648 17.9868 58.8422 13.5976C59.0198 12.9887 58.912 13.1004 59.5158 13.094C60.0765 13.0877 60.6359 13.0889 61.1966 13.094C61.803 13.1004 61.6875 13.0039 61.8537 13.5761C62.6516 16.3237 63.4419 19.0739 64.236 21.8228C64.7193 23.4973 65.2014 25.1705 65.686 26.845C65.7062 26.916 65.7329 26.9845 65.7849 27.1367C65.88 26.8132 65.9587 26.5621 66.0272 26.3084C67.1828 22.0055 68.3385 17.7026 69.489 13.3972C69.5448 13.1866 69.6184 13.0801 69.8671 13.0851C70.7017 13.1029 71.5364 13.0915 72.3711 13.0927C72.4536 13.0927 72.5373 13.1029 72.6604 13.1118C72.6375 13.2297 72.6249 13.33 72.5969 13.4264C70.9631 19.2084 69.3267 24.9878 67.7017 30.7724C67.6205 31.0603 67.5012 31.1504 67.2044 31.1428C66.2961 31.1212 65.3866 31.1263 64.4783 31.1402C64.2322 31.144 64.1409 31.0628 64.0724 30.8244C62.8876 26.7042 61.6913 22.5877 60.4964 18.4713C60.4621 18.3546 60.4266 18.2379 60.315 18.1174C60.1818 18.5652 60.046 19.0117 59.9154 19.4608C58.8079 23.2626 57.7005 27.0631 56.6007 30.8675C56.5398 31.0793 56.4421 31.144 56.2239 31.1415C55.2725 31.1288 54.3211 31.1288 53.371 31.1415C53.1452 31.144 53.0627 31.0603 53.0044 30.8548C51.3629 25.0411 49.7176 19.2299 48.0748 13.4188C48.0495 13.33 48.033 13.2386 48 13.0927Z" fill="white"/>
<path d="M101.39 18.2707C102.303 18.2707 103.197 18.2707 104.134 18.2707C104.134 18.7387 104.134 19.1967 104.134 19.6546C104.156 19.6699 104.177 19.6851 104.2 19.7003C105.111 18.428 106.374 17.9104 107.884 17.9231C109.425 17.9358 110.633 18.5675 111.459 19.9058C111.512 19.8639 111.55 19.8449 111.573 19.8132C112.492 18.499 113.791 17.9408 115.354 17.9282C117.086 17.9142 118.518 18.5206 119.478 20.0225C120.085 20.9688 120.286 22.0344 120.29 23.1406C120.298 25.7094 120.29 28.2769 120.299 30.8457C120.3 31.093 120.208 31.145 119.983 31.1412C119.275 31.1286 118.566 31.1235 117.858 31.1438C117.58 31.1514 117.501 31.0753 117.502 30.7924C117.513 28.3619 117.516 25.9301 117.502 23.4996C117.499 23.0708 117.461 22.6281 117.346 22.2171C117.031 21.0919 116.136 20.483 114.937 20.5172C113.544 20.5566 112.58 21.3722 112.324 22.774C112.241 23.2281 112.215 23.6975 112.212 24.1605C112.201 26.3487 112.207 28.5357 112.207 30.7239C112.207 30.8482 112.207 30.9713 112.207 31.1146C112.076 31.1235 111.985 31.1362 111.892 31.1362C111.185 31.1374 110.475 31.1235 109.768 31.1438C109.482 31.1514 109.412 31.0588 109.414 30.7848C109.424 28.386 109.425 25.9859 109.414 23.5871C109.411 23.1469 109.392 22.6915 109.287 22.2678C108.924 20.8153 107.503 20.143 106.001 20.6885C104.96 21.0665 104.437 21.8708 104.247 22.9122C104.172 23.3245 104.154 23.752 104.152 24.1732C104.143 26.3715 104.143 28.5699 104.153 30.7683C104.154 31.0512 104.087 31.1539 103.785 31.145C102.995 31.1235 102.205 31.1374 101.391 31.1374C101.39 26.8384 101.39 22.5735 101.39 18.2707Z" fill="white"/>
<path d="M83.4821 19.9901C83.4821 19.3952 83.4821 18.8434 83.4821 18.2738C84.4145 18.2738 85.3088 18.2738 86.2311 18.2738C86.2311 22.5462 86.2311 26.8161 86.2311 31.1114C85.3279 31.1114 84.4272 31.1114 83.4847 31.1114C83.4847 30.538 83.4847 29.9761 83.4847 29.3469C83.3781 29.4458 83.3223 29.4877 83.2779 29.541C82.1185 30.9402 80.595 31.4983 78.8177 31.4565C75.6401 31.3803 73.0954 28.908 72.6565 25.8C72.3076 23.334 72.9964 21.2003 74.851 19.4916C76.9669 17.5444 80.4465 17.382 82.579 19.1288C82.8859 19.38 83.1536 19.6755 83.4821 19.9901ZM79.419 28.8103C81.7506 28.8065 83.4822 27.0508 83.4834 24.6913C83.4847 22.3395 81.7404 20.5724 79.4165 20.5699C77.076 20.5673 75.3242 22.3445 75.3369 24.7091C75.3508 27.0711 77.0862 28.8141 79.419 28.8103Z" fill="white"/>
<path d="M125.489 25.882C125.85 27.3231 126.673 28.2872 128.049 28.6766C129.917 29.2056 131.608 28.9303 132.955 27.3345C133.694 27.7658 134.437 28.1996 135.268 28.6842C134.864 29.113 134.522 29.5392 134.117 29.8957C132.987 30.8915 131.635 31.357 130.147 31.442C128.414 31.541 126.776 31.2251 125.326 30.2141C123.843 29.1802 122.985 27.7391 122.693 25.9708C122.364 23.9868 122.717 22.1335 123.935 20.5021C124.991 19.0877 126.432 18.2936 128.17 18.0196C129.552 17.8014 130.894 17.9169 132.16 18.5384C134.098 19.4898 135.212 21.0844 135.678 23.1597C135.856 23.9602 135.874 24.7695 135.782 25.5864C135.752 25.8452 135.65 25.8858 135.424 25.8858C132.252 25.8795 129.081 25.882 125.91 25.882C125.785 25.882 125.66 25.882 125.489 25.882ZM132.972 23.5847C133.061 22.0472 131.357 20.5034 129.5 20.4425C127.097 20.3639 125.725 21.9724 125.513 23.5847C128.002 23.5847 130.487 23.5847 132.972 23.5847Z" fill="white"/>
<path d="M90.9932 27.0848C91.0769 27.2497 91.1454 27.4019 91.2304 27.544C91.8456 28.5753 92.8161 28.9343 93.9489 28.8963C94.4132 28.881 94.9066 28.7935 95.3265 28.6058C96.2551 28.1909 96.3261 27.0353 95.4407 26.5469C94.8483 26.2196 94.1721 26.042 93.5264 25.8137C92.8693 25.5816 92.1919 25.4052 91.5475 25.1439C89.8946 24.4754 89.098 23.4022 89.1221 21.8648C89.1475 20.1839 89.9872 18.9941 91.5222 18.3864C93.6254 17.5543 95.6449 17.7445 97.4653 19.1805C97.9321 19.5497 98.2936 20.0178 98.5879 20.5975C97.8154 21.0313 97.0568 21.4576 96.2728 21.8977C96.2043 21.7912 96.146 21.7075 96.0927 21.6199C95.414 20.51 93.7548 20.0812 92.6182 20.7218C91.7606 21.2064 91.6959 22.2504 92.5459 22.7375C93.0774 23.042 93.6926 23.2081 94.2787 23.4136C95.0462 23.6813 95.8403 23.8779 96.5887 24.1874C98.9203 25.1515 99.6383 27.8561 98.0894 29.7956C97.4132 30.643 96.4809 31.0794 95.4394 31.2925C93.9324 31.6008 92.452 31.5259 91.0325 30.8879C90.0266 30.4363 89.2667 29.7094 88.7377 28.739C88.6235 28.5284 88.6375 28.4155 88.862 28.2924C89.4912 27.9474 90.1065 27.5757 90.7293 27.2154C90.8092 27.171 90.8955 27.1343 90.9932 27.0848Z" fill="white"/>
<path d="M138.3 31.135C138.3 26.8195 138.3 22.5572 138.3 18.2759C139.218 18.2759 140.12 18.2759 141.056 18.2759C141.056 18.9342 141.056 19.5736 141.056 20.2129C141.94 18.6932 143.279 18.0501 145 18.0234C145 19.018 145 19.9935 145 21.0235C144.841 21.0235 144.678 21.0159 144.514 21.0248C143.38 21.0882 142.378 21.4307 141.685 22.3986C141.273 22.9745 141.085 23.6354 141.079 24.3344C141.061 26.4579 141.066 28.5802 141.061 30.7037C141.06 31.1363 141.06 31.1363 140.636 31.1363C139.869 31.135 139.1 31.135 138.3 31.135Z" fill="white"/>
<path d="M11.7507 17.3004C11.7507 17.3397 11.7507 17.379 11.7507 17.4183C11.7507 18.8046 10.8511 19.4092 9.74509 18.7702C8.63905 18.1311 7.73947 16.4893 7.73947 15.103C7.73947 15.0637 7.73947 15.0244 7.73947 14.9851L1 11.0918V32.9668L18.5 43.0686V21.1936L11.7507 17.3004Z" fill="white"/>
<path d="M20.5007 12.2525C20.5007 12.2918 20.5007 12.3311 20.5007 12.3705C20.5007 13.7567 19.6011 14.3613 18.4951 13.7223C17.389 13.0832 16.4895 11.4414 16.4895 10.0551C16.4895 10.0158 16.4895 9.9765 16.4895 9.93717L9.75 6.04883V13.8747L20.4663 20.0636V34.1127L27.25 38.0306V16.1556L20.5007 12.2525Z" fill="white"/>
<path d="M29.2507 7.20857C29.2507 7.24789 29.2507 7.28722 29.2507 7.32654C29.2507 8.71278 28.3511 9.31742 27.2451 8.67837C26.139 8.03933 25.2395 6.39747 25.2395 5.01124C25.2395 4.97191 25.2395 4.93258 25.2395 4.89326L18.5 1V8.82584L29.2163 15.0147V29.0639L36 32.9817V11.1067L29.2507 7.20857Z" fill="white"/>
</g>
<defs>
<clipPath id="clip0">
<rect width="147" height="43" fill="white" transform="translate(0 0.5)"/>
</clipPath>
</defs>
</svg>
