<svg width="82" height="99" viewBox="0 0 82 99" fill="none" xmlns="http://www.w3.org/2000/svg">
<g opacity="0.2">
<path d="M25.1874 38.1893C25.1874 38.2815 25.1874 38.3736 25.1874 38.4657C25.1874 41.7135 23.0798 43.1301 20.4885 41.6329C17.8972 40.1357 15.7896 36.2891 15.7896 33.0413C15.7896 32.9492 15.7896 32.857 15.7896 32.7649L0 23.6436V74.8936L41 98.5607V47.3107L25.1874 38.1893Z" fill="#231044"/>
<path d="M45.6874 26.3619C45.6874 26.454 45.6874 26.5462 45.6874 26.6383C45.6874 29.8861 43.5798 31.3026 40.9885 29.8054C38.3972 28.3083 36.2896 24.4616 36.2896 21.2139C36.2896 21.1217 36.2896 21.0296 36.2896 20.9375L20.5 11.8276V30.1625L45.6067 44.6622V77.5774L61.5 86.7563V35.5063L45.6874 26.3619Z" fill="#231044"/>
<path d="M66.1874 14.5458C66.1874 14.6379 66.1874 14.7301 66.1874 14.8222C66.1874 18.0699 64.0798 19.4865 61.4885 17.9893C58.8972 16.4921 56.7896 12.6455 56.7896 9.39775C56.7896 9.30562 56.7896 9.21348 56.7896 9.12135L41 0V18.3348L66.1067 32.8346V65.7497L82 74.9287V23.6787L66.1874 14.5458Z" fill="#231044"/>
</g>
</svg>
